<?xml version="1.0" encoding="UTF-8" standalone="no"?>
<!DOCTYPE svg PUBLIC "-//W3C//DTD SVG 1.1//EN"
 "http://www.w3.org/Graphics/SVG/1.1/DTD/svg11.dtd">
<!-- Generated by graphviz version 2.47.0 (20210316.0004)
 -->
<!-- Title: dependencies Pages: 1 -->
<svg width="504pt" height="211pt"
 viewBox="0.00 0.00 504.00 211.00" xmlns="http://www.w3.org/2000/svg" xmlns:xlink="http://www.w3.org/1999/xlink">
<g id="graph0" class="graph" transform="scale(1 1) rotate(0) translate(4 207)">
<title>dependencies</title>
<polygon fill="white" stroke="transparent" points="-4,4 -4,-207 500,-207 500,4 -4,4"/>
<text text-anchor="start" x="227.01" y="-42.4" font-family="Times-12" font-weight="bold" font-size="14.00">Legend</text>
<polygon fill="#ffffb3" stroke="transparent" points="14,-10 14,-30 34,-30 34,-10 14,-10"/>
<text text-anchor="start" x="37.63" y="-15.4" font-family="Times-12" font-size="14.00"> &#160;Declarations</text>
<polygon fill="#8dd3c7" stroke="transparent" points="127,-10 127,-30 147,-30 147,-10 127,-10"/>
<text text-anchor="start" x="150.73" y="-15.4" font-family="Times-12" font-size="14.00"> &#160;Module</text>
<polygon fill="#80b1d3" stroke="transparent" points="213,-10 213,-30 233,-30 233,-10 213,-10"/>
<text text-anchor="start" x="236.78" y="-15.4" font-family="Times-12" font-size="14.00"> &#160;Bootstrap</text>
<polygon fill="#fdb462" stroke="transparent" points="310,-10 310,-30 330,-30 330,-10 310,-10"/>
<text text-anchor="start" x="333.67" y="-15.4" font-family="Times-12" font-size="14.00"> &#160;Providers</text>
<polygon fill="#fb8072" stroke="transparent" points="406,-10 406,-30 426,-30 426,-10 406,-10"/>
<text text-anchor="start" x="429.73" y="-15.4" font-family="Times-12" font-size="14.00"> &#160;Exports</text>
<g id="clust1" class="cluster">
<title>cluster_ExamplesModule</title>
<polygon fill="none" stroke="black" stroke-dasharray="1,5" points="99,-70 99,-195 397,-195 397,-70 99,-70"/>
</g>
<g id="clust2" class="cluster">
<title>cluster_ExamplesModule_declarations</title>
<polygon fill="none" stroke="black" points="107,-78 107,-130 389,-130 389,-78 107,-78"/>
</g>
<!-- LandingComponent -->
<g id="node1" class="node">
<title>LandingComponent</title>
<polygon fill="#ffffb3" stroke="black" points="380.99,-122 253.01,-122 253.01,-86 380.99,-86 380.99,-122"/>
<text text-anchor="middle" x="317" y="-99.8" font-family="Times,serif" font-size="14.00">LandingComponent</text>
</g>
<!-- ExamplesModule -->
<g id="node3" class="node">
<title>ExamplesModule</title>
<polygon fill="#8dd3c7" stroke="black" points="303.26,-187 300.26,-191 279.26,-191 276.26,-187 188.74,-187 188.74,-151 303.26,-151 303.26,-187"/>
<text text-anchor="middle" x="246" y="-164.8" font-family="Times,serif" font-size="14.00">ExamplesModule</text>
</g>
<!-- LandingComponent&#45;&gt;ExamplesModule -->
<g id="edge1" class="edge">
<title>LandingComponent&#45;&gt;ExamplesModule</title>
<path fill="none" stroke="black" d="M278.19,-122.11C278.19,-122.11 278.19,-140.99 278.19,-140.99"/>
<polygon fill="black" stroke="black" points="274.69,-140.99 278.19,-150.99 281.69,-140.99 274.69,-140.99"/>
</g>
<!-- ProfileComponent -->
<g id="node2" class="node">
<title>ProfileComponent</title>
<polygon fill="#ffffb3" stroke="black" points="234.93,-122 115.07,-122 115.07,-86 234.93,-86 234.93,-122"/>
<text text-anchor="middle" x="175" y="-99.8" font-family="Times,serif" font-size="14.00">ProfileComponent</text>
</g>
<!-- ProfileComponent&#45;&gt;ExamplesModule -->
<g id="edge2" class="edge">
<title>ProfileComponent&#45;&gt;ExamplesModule</title>
<path fill="none" stroke="black" d="M211.67,-122.11C211.67,-122.11 211.67,-140.99 211.67,-140.99"/>
<polygon fill="black" stroke="black" points="208.17,-140.99 211.67,-150.99 215.17,-140.99 208.17,-140.99"/>
</g>
</g>
</svg>
