<?xml version="1.0" encoding="UTF-8" standalone="no"?>
<!DOCTYPE svg PUBLIC "-//W3C//DTD SVG 1.1//EN"
 "http://www.w3.org/Graphics/SVG/1.1/DTD/svg11.dtd">
<!-- Generated by graphviz version 2.47.0 (20210316.0004)
 -->
<!-- Title: dependencies Pages: 1 -->
<svg width="1212pt" height="284pt"
 viewBox="0.00 0.00 1212.00 284.00" xmlns="http://www.w3.org/2000/svg" xmlns:xlink="http://www.w3.org/1999/xlink">
<g id="graph0" class="graph" transform="scale(1 1) rotate(0) translate(4 280)">
<title>dependencies</title>
<polygon fill="white" stroke="transparent" points="-4,4 -4,-280 1208,-280 1208,4 -4,4"/>
<text text-anchor="start" x="581.01" y="-42.4" font-family="Times-12" font-weight="bold" font-size="14.00">Legend</text>
<polygon fill="#ffffb3" stroke="transparent" points="368,-10 368,-30 388,-30 388,-10 368,-10"/>
<text text-anchor="start" x="391.63" y="-15.4" font-family="Times-12" font-size="14.00"> &#160;Declarations</text>
<polygon fill="#8dd3c7" stroke="transparent" points="481,-10 481,-30 501,-30 501,-10 481,-10"/>
<text text-anchor="start" x="504.73" y="-15.4" font-family="Times-12" font-size="14.00"> &#160;Module</text>
<polygon fill="#80b1d3" stroke="transparent" points="567,-10 567,-30 587,-30 587,-10 567,-10"/>
<text text-anchor="start" x="590.78" y="-15.4" font-family="Times-12" font-size="14.00"> &#160;Bootstrap</text>
<polygon fill="#fdb462" stroke="transparent" points="664,-10 664,-30 684,-30 684,-10 664,-10"/>
<text text-anchor="start" x="687.67" y="-15.4" font-family="Times-12" font-size="14.00"> &#160;Providers</text>
<polygon fill="#fb8072" stroke="transparent" points="760,-10 760,-30 780,-30 780,-10 760,-10"/>
<text text-anchor="start" x="783.73" y="-15.4" font-family="Times-12" font-size="14.00"> &#160;Exports</text>
<g id="clust1" class="cluster">
<title>cluster_AppModule</title>
<polygon fill="none" stroke="black" stroke-dasharray="1,5" points="8,-70 8,-268 1196,-268 1196,-70 8,-70"/>
</g>
<g id="clust11" class="cluster">
<title>cluster_AppModule_bootstrap</title>
<polygon fill="none" stroke="black" points="548,-208 548,-260 672,-260 672,-208 548,-208"/>
</g>
<g id="clust2" class="cluster">
<title>cluster_AppModule_declarations</title>
<polygon fill="none" stroke="black" points="306,-78 306,-130 1188,-130 1188,-78 306,-78"/>
</g>
<g id="clust9" class="cluster">
<title>cluster_AppModule_imports</title>
<polygon fill="none" stroke="black" points="16,-78 16,-130 298,-130 298,-78 16,-78"/>
</g>
<!-- AppComponent -->
<g id="node1" class="node">
<title>AppComponent</title>
<polygon fill="#ffffb3" stroke="black" points="1179.94,-122 1074.06,-122 1074.06,-86 1179.94,-86 1179.94,-122"/>
<text text-anchor="middle" x="1127" y="-99.8" font-family="Times,serif" font-size="14.00">AppComponent</text>
</g>
<!-- AppModule -->
<g id="node7" class="node">
<title>AppModule</title>
<polygon fill="#8dd3c7" stroke="black" points="651.66,-187 648.66,-191 627.66,-191 624.66,-187 568.34,-187 568.34,-151 651.66,-151 651.66,-187"/>
<text text-anchor="middle" x="610" y="-164.8" font-family="Times,serif" font-size="14.00">AppModule</text>
</g>
<!-- AppComponent&#45;&gt;AppModule -->
<g id="edge1" class="edge">
<title>AppComponent&#45;&gt;AppModule</title>
<path fill="none" stroke="black" d="M1127,-122.29C1127,-144.21 1127,-178 1127,-178 1127,-178 661.87,-178 661.87,-178"/>
<polygon fill="black" stroke="black" points="661.87,-174.5 651.87,-178 661.87,-181.5 661.87,-174.5"/>
</g>
<!-- EventDetailsComponent -->
<g id="node2" class="node">
<title>EventDetailsComponent</title>
<polygon fill="#ffffb3" stroke="black" points="1055.64,-122 902.36,-122 902.36,-86 1055.64,-86 1055.64,-122"/>
<text text-anchor="middle" x="979" y="-99.8" font-family="Times,serif" font-size="14.00">EventDetailsComponent</text>
</g>
<!-- EventDetailsComponent&#45;&gt;AppModule -->
<g id="edge2" class="edge">
<title>EventDetailsComponent&#45;&gt;AppModule</title>
<path fill="none" stroke="black" d="M979,-122.11C979,-141.34 979,-169 979,-169 979,-169 661.97,-169 661.97,-169"/>
<polygon fill="black" stroke="black" points="661.97,-165.5 651.97,-169 661.97,-172.5 661.97,-165.5"/>
</g>
<!-- FooterComponent -->
<g id="node3" class="node">
<title>FooterComponent</title>
<polygon fill="#ffffb3" stroke="black" points="883.88,-122 766.12,-122 766.12,-86 883.88,-86 883.88,-122"/>
<text text-anchor="middle" x="825" y="-99.8" font-family="Times,serif" font-size="14.00">FooterComponent</text>
</g>
<!-- FooterComponent&#45;&gt;AppModule -->
<g id="edge3" class="edge">
<title>FooterComponent&#45;&gt;AppModule</title>
<path fill="none" stroke="black" d="M825,-122.03C825,-138.4 825,-160 825,-160 825,-160 661.71,-160 661.71,-160"/>
<polygon fill="black" stroke="black" points="661.71,-156.5 651.71,-160 661.71,-163.5 661.71,-156.5"/>
</g>
<!-- NavbarComponent -->
<g id="node4" class="node">
<title>NavbarComponent</title>
<polygon fill="#ffffb3" stroke="black" points="748.03,-122 625.97,-122 625.97,-86 748.03,-86 748.03,-122"/>
<text text-anchor="middle" x="687" y="-99.8" font-family="Times,serif" font-size="14.00">NavbarComponent</text>
</g>
<!-- NavbarComponent&#45;&gt;AppModule -->
<g id="edge4" class="edge">
<title>NavbarComponent&#45;&gt;AppModule</title>
<path fill="none" stroke="black" d="M638.78,-122.11C638.78,-122.11 638.78,-140.99 638.78,-140.99"/>
<polygon fill="black" stroke="black" points="635.28,-140.99 638.78,-150.99 642.28,-140.99 635.28,-140.99"/>
</g>
<!-- RegistrationComponent -->
<g id="node5" class="node">
<title>RegistrationComponent</title>
<polygon fill="#ffffb3" stroke="black" points="607.77,-122 458.23,-122 458.23,-86 607.77,-86 607.77,-122"/>
<text text-anchor="middle" x="533" y="-99.8" font-family="Times,serif" font-size="14.00">RegistrationComponent</text>
</g>
<!-- RegistrationComponent&#45;&gt;AppModule -->
<g id="edge5" class="edge">
<title>RegistrationComponent&#45;&gt;AppModule</title>
<path fill="none" stroke="black" d="M588.03,-122.11C588.03,-122.11 588.03,-140.99 588.03,-140.99"/>
<polygon fill="black" stroke="black" points="584.53,-140.99 588.03,-150.99 591.53,-140.99 584.53,-140.99"/>
</g>
<!-- SettingsComponent -->
<g id="node6" class="node">
<title>SettingsComponent</title>
<polygon fill="#ffffb3" stroke="black" points="440.45,-122 313.55,-122 313.55,-86 440.45,-86 440.45,-122"/>
<text text-anchor="middle" x="377" y="-99.8" font-family="Times,serif" font-size="14.00">SettingsComponent</text>
</g>
<!-- SettingsComponent&#45;&gt;AppModule -->
<g id="edge6" class="edge">
<title>SettingsComponent&#45;&gt;AppModule</title>
<path fill="none" stroke="black" d="M377,-122.03C377,-138.4 377,-160 377,-160 377,-160 558.08,-160 558.08,-160"/>
<polygon fill="black" stroke="black" points="558.08,-163.5 568.08,-160 558.08,-156.5 558.08,-163.5"/>
</g>
<!-- AppComponent  -->
<g id="node10" class="node">
<title>AppComponent </title>
<polygon fill="#80b1d3" stroke="black" points="664.44,-252 555.56,-252 555.56,-216 664.44,-216 664.44,-252"/>
<text text-anchor="middle" x="610" y="-229.8" font-family="Times,serif" font-size="14.00">AppComponent </text>
</g>
<!-- AppModule&#45;&gt;AppComponent  -->
<g id="edge9" class="edge">
<title>AppModule&#45;&gt;AppComponent </title>
<path fill="none" stroke="black" stroke-dasharray="1,5" d="M610,-187.11C610,-187.11 610,-205.99 610,-205.99"/>
<polygon fill="black" stroke="black" points="606.5,-205.99 610,-215.99 613.5,-205.99 606.5,-205.99"/>
</g>
<!-- AppRoutingModule -->
<g id="node8" class="node">
<title>AppRoutingModule</title>
<polygon fill="#8dd3c7" stroke="black" points="290.27,-122 287.27,-126 266.27,-126 263.27,-122 161.73,-122 161.73,-86 290.27,-86 290.27,-122"/>
<text text-anchor="middle" x="226" y="-99.8" font-family="Times,serif" font-size="14.00">AppRoutingModule</text>
</g>
<!-- AppRoutingModule&#45;&gt;AppModule -->
<g id="edge7" class="edge">
<title>AppRoutingModule&#45;&gt;AppModule</title>
<path fill="none" stroke="black" d="M226,-122.11C226,-141.34 226,-169 226,-169 226,-169 558.17,-169 558.17,-169"/>
<polygon fill="black" stroke="black" points="558.17,-172.5 568.17,-169 558.17,-165.5 558.17,-172.5"/>
</g>
<!-- EventsComponent -->
<g id="node9" class="node">
<title>EventsComponent</title>
<polygon fill="#8dd3c7" stroke="black" points="143.94,-122 140.94,-126 119.94,-126 116.94,-122 24.06,-122 24.06,-86 143.94,-86 143.94,-122"/>
<text text-anchor="middle" x="84" y="-99.8" font-family="Times,serif" font-size="14.00">EventsComponent</text>
</g>
<!-- EventsComponent&#45;&gt;AppModule -->
<g id="edge8" class="edge">
<title>EventsComponent&#45;&gt;AppModule</title>
<path fill="none" stroke="black" d="M84,-122.29C84,-144.21 84,-178 84,-178 84,-178 558.29,-178 558.29,-178"/>
<polygon fill="black" stroke="black" points="558.29,-181.5 568.29,-178 558.29,-174.5 558.29,-181.5"/>
</g>
</g>
</svg>
