<?xml version="1.0" encoding="UTF-8" standalone="no"?>
<!DOCTYPE svg PUBLIC "-//W3C//DTD SVG 1.1//EN"
 "http://www.w3.org/Graphics/SVG/1.1/DTD/svg11.dtd">
<!-- Generated by graphviz version 2.47.0 (20210316.0004)
 -->
<!-- Title: dependencies Pages: 1 -->
<svg width="1504pt" height="284pt"
 viewBox="0.00 0.00 1504.00 284.00" xmlns="http://www.w3.org/2000/svg" xmlns:xlink="http://www.w3.org/1999/xlink">
<g id="graph0" class="graph" transform="scale(1 1) rotate(0) translate(4 280)">
<title>dependencies</title>
<polygon fill="white" stroke="transparent" points="-4,4 -4,-280 1500,-280 1500,4 -4,4"/>
<text text-anchor="start" x="727.01" y="-42.4" font-family="Times-12" font-weight="bold" font-size="14.00">Legend</text>
<polygon fill="#ffffb3" stroke="transparent" points="514,-10 514,-30 534,-30 534,-10 514,-10"/>
<text text-anchor="start" x="537.63" y="-15.4" font-family="Times-12" font-size="14.00"> &#160;Declarations</text>
<polygon fill="#8dd3c7" stroke="transparent" points="627,-10 627,-30 647,-30 647,-10 627,-10"/>
<text text-anchor="start" x="650.73" y="-15.4" font-family="Times-12" font-size="14.00"> &#160;Module</text>
<polygon fill="#80b1d3" stroke="transparent" points="713,-10 713,-30 733,-30 733,-10 713,-10"/>
<text text-anchor="start" x="736.78" y="-15.4" font-family="Times-12" font-size="14.00"> &#160;Bootstrap</text>
<polygon fill="#fdb462" stroke="transparent" points="810,-10 810,-30 830,-30 830,-10 810,-10"/>
<text text-anchor="start" x="833.67" y="-15.4" font-family="Times-12" font-size="14.00"> &#160;Providers</text>
<polygon fill="#fb8072" stroke="transparent" points="906,-10 906,-30 926,-30 926,-10 906,-10"/>
<text text-anchor="start" x="929.73" y="-15.4" font-family="Times-12" font-size="14.00"> &#160;Exports</text>
<g id="clust1" class="cluster">
<title>cluster_ComponentsModule</title>
<polygon fill="none" stroke="black" stroke-dasharray="1,5" points="8,-70 8,-268 1488,-268 1488,-70 8,-70"/>
</g>
<g id="clust12" class="cluster">
<title>cluster_ComponentsModule_exports</title>
<polygon fill="none" stroke="black" points="662,-208 662,-260 834,-260 834,-208 662,-208"/>
</g>
<g id="clust11" class="cluster">
<title>cluster_ComponentsModule_imports</title>
<polygon fill="none" stroke="black" points="1350,-78 1350,-130 1480,-130 1480,-78 1350,-78"/>
</g>
<g id="clust2" class="cluster">
<title>cluster_ComponentsModule_declarations</title>
<polygon fill="none" stroke="black" points="16,-78 16,-130 1342,-130 1342,-78 16,-78"/>
</g>
<!-- BasicelementsComponent -->
<g id="node1" class="node">
<title>BasicelementsComponent</title>
<polygon fill="#ffffb3" stroke="black" points="1334.19,-122 1171.81,-122 1171.81,-86 1334.19,-86 1334.19,-122"/>
<text text-anchor="middle" x="1253" y="-99.8" font-family="Times,serif" font-size="14.00">BasicelementsComponent</text>
</g>
<!-- ComponentsModule -->
<g id="node9" class="node">
<title>ComponentsModule</title>
<polygon fill="#8dd3c7" stroke="black" points="813.33,-187 810.33,-191 789.33,-191 786.33,-187 682.67,-187 682.67,-151 813.33,-151 813.33,-187"/>
<text text-anchor="middle" x="748" y="-164.8" font-family="Times,serif" font-size="14.00">ComponentsModule</text>
</g>
<!-- BasicelementsComponent&#45;&gt;ComponentsModule -->
<g id="edge1" class="edge">
<title>BasicelementsComponent&#45;&gt;ComponentsModule</title>
<path fill="none" stroke="black" d="M1253,-122.13C1253,-142.57 1253,-173 1253,-173 1253,-173 823.24,-173 823.24,-173"/>
<polygon fill="black" stroke="black" points="823.24,-169.5 813.24,-173 823.24,-176.5 823.24,-169.5"/>
</g>
<!-- ComponentsComponent -->
<g id="node2" class="node">
<title>ComponentsComponent</title>
<polygon fill="#ffffb3" stroke="black" points="1154.11,-122 1001.89,-122 1001.89,-86 1154.11,-86 1154.11,-122"/>
<text text-anchor="middle" x="1078" y="-99.8" font-family="Times,serif" font-size="14.00">ComponentsComponent</text>
</g>
<!-- ComponentsComponent&#45;&gt;ComponentsModule -->
<g id="edge2" class="edge">
<title>ComponentsComponent&#45;&gt;ComponentsModule</title>
<path fill="none" stroke="black" d="M1078,-122.27C1078,-140.56 1078,-166 1078,-166 1078,-166 823.2,-166 823.2,-166"/>
<polygon fill="black" stroke="black" points="823.2,-162.5 813.2,-166 823.2,-169.5 823.2,-162.5"/>
</g>
<!-- NavigationComponent -->
<g id="node3" class="node">
<title>NavigationComponent</title>
<polygon fill="#ffffb3" stroke="black" points="983.54,-122 840.46,-122 840.46,-86 983.54,-86 983.54,-122"/>
<text text-anchor="middle" x="912" y="-99.8" font-family="Times,serif" font-size="14.00">NavigationComponent</text>
</g>
<!-- NavigationComponent&#45;&gt;ComponentsModule -->
<g id="edge3" class="edge">
<title>NavigationComponent&#45;&gt;ComponentsModule</title>
<path fill="none" stroke="black" d="M912,-122.01C912,-138.05 912,-159 912,-159 912,-159 823.29,-159 823.29,-159"/>
<polygon fill="black" stroke="black" points="823.29,-155.5 813.29,-159 823.29,-162.5 823.29,-155.5"/>
</g>
<!-- NgbdModalComponent -->
<g id="node4" class="node">
<title>NgbdModalComponent</title>
<polygon fill="#ffffb3" stroke="black" points="822.49,-122 673.51,-122 673.51,-86 822.49,-86 822.49,-122"/>
<text text-anchor="middle" x="748" y="-99.8" font-family="Times,serif" font-size="14.00">NgbdModalComponent</text>
</g>
<!-- NgbdModalComponent&#45;&gt;ComponentsModule -->
<g id="edge4" class="edge">
<title>NgbdModalComponent&#45;&gt;ComponentsModule</title>
<path fill="none" stroke="black" d="M748,-122.11C748,-122.11 748,-140.99 748,-140.99"/>
<polygon fill="black" stroke="black" points="744.5,-140.99 748,-150.99 751.5,-140.99 744.5,-140.99"/>
</g>
<!-- NgbdModalContent -->
<g id="node5" class="node">
<title>NgbdModalContent</title>
<polygon fill="#ffffb3" stroke="black" points="655.99,-122 528.01,-122 528.01,-86 655.99,-86 655.99,-122"/>
<text text-anchor="middle" x="592" y="-99.8" font-family="Times,serif" font-size="14.00">NgbdModalContent</text>
</g>
<!-- NgbdModalContent&#45;&gt;ComponentsModule -->
<g id="edge5" class="edge">
<title>NgbdModalContent&#45;&gt;ComponentsModule</title>
<path fill="none" stroke="black" d="M592,-122.01C592,-138.05 592,-159 592,-159 592,-159 672.75,-159 672.75,-159"/>
<polygon fill="black" stroke="black" points="672.75,-162.5 682.75,-159 672.75,-155.5 672.75,-162.5"/>
</g>
<!-- NotificationComponent -->
<g id="node6" class="node">
<title>NotificationComponent</title>
<polygon fill="#ffffb3" stroke="black" points="510.48,-122 361.52,-122 361.52,-86 510.48,-86 510.48,-122"/>
<text text-anchor="middle" x="436" y="-99.8" font-family="Times,serif" font-size="14.00">NotificationComponent</text>
</g>
<!-- NotificationComponent&#45;&gt;ComponentsModule -->
<g id="edge6" class="edge">
<title>NotificationComponent&#45;&gt;ComponentsModule</title>
<path fill="none" stroke="black" d="M436,-122.27C436,-140.56 436,-166 436,-166 436,-166 672.59,-166 672.59,-166"/>
<polygon fill="black" stroke="black" points="672.59,-169.5 682.59,-166 672.59,-162.5 672.59,-169.5"/>
</g>
<!-- NucleoiconsComponent -->
<g id="node7" class="node">
<title>NucleoiconsComponent</title>
<polygon fill="#ffffb3" stroke="black" points="343.81,-122 192.19,-122 192.19,-86 343.81,-86 343.81,-122"/>
<text text-anchor="middle" x="268" y="-99.8" font-family="Times,serif" font-size="14.00">NucleoiconsComponent</text>
</g>
<!-- NucleoiconsComponent&#45;&gt;ComponentsModule -->
<g id="edge7" class="edge">
<title>NucleoiconsComponent&#45;&gt;ComponentsModule</title>
<path fill="none" stroke="black" d="M268,-122.13C268,-142.57 268,-173 268,-173 268,-173 672.77,-173 672.77,-173"/>
<polygon fill="black" stroke="black" points="672.77,-176.5 682.77,-173 672.77,-169.5 672.77,-176.5"/>
</g>
<!-- TypographyComponent -->
<g id="node8" class="node">
<title>TypographyComponent</title>
<polygon fill="#ffffb3" stroke="black" points="173.76,-122 24.24,-122 24.24,-86 173.76,-86 173.76,-122"/>
<text text-anchor="middle" x="99" y="-99.8" font-family="Times,serif" font-size="14.00">TypographyComponent</text>
</g>
<!-- TypographyComponent&#45;&gt;ComponentsModule -->
<g id="edge8" class="edge">
<title>TypographyComponent&#45;&gt;ComponentsModule</title>
<path fill="none" stroke="black" d="M99,-122.01C99,-144.49 99,-180 99,-180 99,-180 672.8,-180 672.8,-180"/>
<polygon fill="black" stroke="black" points="672.8,-183.5 682.8,-180 672.8,-176.5 672.8,-183.5"/>
</g>
<!-- ComponentsComponent  -->
<g id="node11" class="node">
<title>ComponentsComponent </title>
<polygon fill="#fb8072" stroke="black" points="825.61,-252 670.39,-252 670.39,-216 825.61,-216 825.61,-252"/>
<text text-anchor="middle" x="748" y="-229.8" font-family="Times,serif" font-size="14.00">ComponentsComponent </text>
</g>
<!-- ComponentsModule&#45;&gt;ComponentsComponent  -->
<g id="edge10" class="edge">
<title>ComponentsModule&#45;&gt;ComponentsComponent </title>
<path fill="none" stroke="black" stroke-dasharray="5,2" d="M748,-187.11C748,-187.11 748,-205.99 748,-205.99"/>
<polygon fill="black" stroke="black" points="744.5,-205.99 748,-215.99 751.5,-205.99 744.5,-205.99"/>
</g>
<!-- CardsComponent -->
<g id="node10" class="node">
<title>CardsComponent</title>
<polygon fill="#8dd3c7" stroke="black" points="1471.99,-122 1468.99,-126 1447.99,-126 1444.99,-122 1358.01,-122 1358.01,-86 1471.99,-86 1471.99,-122"/>
<text text-anchor="middle" x="1415" y="-99.8" font-family="Times,serif" font-size="14.00">CardsComponent</text>
</g>
<!-- CardsComponent&#45;&gt;ComponentsModule -->
<g id="edge9" class="edge">
<title>CardsComponent&#45;&gt;ComponentsModule</title>
<path fill="none" stroke="black" d="M1415,-122.01C1415,-144.49 1415,-180 1415,-180 1415,-180 823.17,-180 823.17,-180"/>
<polygon fill="black" stroke="black" points="823.17,-176.5 813.17,-180 823.17,-183.5 823.17,-176.5"/>
</g>
</g>
</svg>
