<?xml version="1.0" encoding="UTF-8" standalone="no"?>
<!DOCTYPE svg PUBLIC "-//W3C//DTD SVG 1.1//EN"
 "http://www.w3.org/Graphics/SVG/1.1/DTD/svg11.dtd">
<!-- Generated by graphviz version 2.47.0 (20210316.0004)
 -->
<!-- Title: dependencies Pages: 1 -->
<svg width="3006pt" height="284pt"
 viewBox="0.00 0.00 3006.00 284.00" xmlns="http://www.w3.org/2000/svg" xmlns:xlink="http://www.w3.org/1999/xlink">
<g id="graph0" class="graph" transform="scale(1 1) rotate(0) translate(4 280)">
<title>dependencies</title>
<polygon fill="white" stroke="transparent" points="-4,4 -4,-280 3002,-280 3002,4 -4,4"/>
<text text-anchor="start" x="1478.01" y="-42.4" font-family="Times-12" font-weight="bold" font-size="14.00">Legend</text>
<polygon fill="#ffffb3" stroke="transparent" points="1265,-10 1265,-30 1285,-30 1285,-10 1265,-10"/>
<text text-anchor="start" x="1288.63" y="-15.4" font-family="Times-12" font-size="14.00"> &#160;Declarations</text>
<polygon fill="#8dd3c7" stroke="transparent" points="1378,-10 1378,-30 1398,-30 1398,-10 1378,-10"/>
<text text-anchor="start" x="1401.73" y="-15.4" font-family="Times-12" font-size="14.00"> &#160;Module</text>
<polygon fill="#80b1d3" stroke="transparent" points="1464,-10 1464,-30 1484,-30 1484,-10 1464,-10"/>
<text text-anchor="start" x="1487.78" y="-15.4" font-family="Times-12" font-size="14.00"> &#160;Bootstrap</text>
<polygon fill="#fdb462" stroke="transparent" points="1561,-10 1561,-30 1581,-30 1581,-10 1561,-10"/>
<text text-anchor="start" x="1584.67" y="-15.4" font-family="Times-12" font-size="14.00"> &#160;Providers</text>
<polygon fill="#fb8072" stroke="transparent" points="1657,-10 1657,-30 1677,-30 1677,-10 1657,-10"/>
<text text-anchor="start" x="1680.73" y="-15.4" font-family="Times-12" font-size="14.00"> &#160;Exports</text>
<g id="clust1" class="cluster">
<title>cluster_AppModule</title>
<polygon fill="none" stroke="black" stroke-dasharray="1,5" points="8,-70 8,-268 1196,-268 1196,-70 8,-70"/>
</g>
<g id="clust2" class="cluster">
<title>cluster_AppModule_declarations</title>
<polygon fill="none" stroke="black" points="306,-78 306,-130 1188,-130 1188,-78 306,-78"/>
</g>
<g id="clust9" class="cluster">
<title>cluster_AppModule_imports</title>
<polygon fill="none" stroke="black" points="16,-78 16,-130 298,-130 298,-78 16,-78"/>
</g>
<g id="clust11" class="cluster">
<title>cluster_AppModule_bootstrap</title>
<polygon fill="none" stroke="black" points="548,-208 548,-260 672,-260 672,-208 548,-208"/>
</g>
<g id="clust19" class="cluster">
<title>cluster_ComponentsModule</title>
<polygon fill="none" stroke="black" stroke-dasharray="1,5" points="1204,-70 1204,-268 2684,-268 2684,-70 1204,-70"/>
</g>
<g id="clust20" class="cluster">
<title>cluster_ComponentsModule_declarations</title>
<polygon fill="none" stroke="black" points="1350,-78 1350,-130 2676,-130 2676,-78 1350,-78"/>
</g>
<g id="clust29" class="cluster">
<title>cluster_ComponentsModule_imports</title>
<polygon fill="none" stroke="black" points="1212,-78 1212,-130 1342,-130 1342,-78 1212,-78"/>
</g>
<g id="clust30" class="cluster">
<title>cluster_ComponentsModule_exports</title>
<polygon fill="none" stroke="black" points="1840,-208 1840,-260 2012,-260 2012,-208 1840,-208"/>
</g>
<g id="clust33" class="cluster">
<title>cluster_ExamplesModule</title>
<polygon fill="none" stroke="black" stroke-dasharray="1,5" points="2692,-70 2692,-195 2990,-195 2990,-70 2692,-70"/>
</g>
<g id="clust34" class="cluster">
<title>cluster_ExamplesModule_declarations</title>
<polygon fill="none" stroke="black" points="2700,-78 2700,-130 2982,-130 2982,-78 2700,-78"/>
</g>
<!-- AppComponent -->
<g id="node1" class="node">
<title>AppComponent</title>
<polygon fill="#ffffb3" stroke="black" points="1179.94,-122 1074.06,-122 1074.06,-86 1179.94,-86 1179.94,-122"/>
<text text-anchor="middle" x="1127" y="-99.8" font-family="Times,serif" font-size="14.00">AppComponent</text>
</g>
<!-- AppModule -->
<g id="node7" class="node">
<title>AppModule</title>
<polygon fill="#8dd3c7" stroke="black" points="651.66,-187 648.66,-191 627.66,-191 624.66,-187 568.34,-187 568.34,-151 651.66,-151 651.66,-187"/>
<text text-anchor="middle" x="610" y="-164.8" font-family="Times,serif" font-size="14.00">AppModule</text>
</g>
<!-- AppComponent&#45;&gt;AppModule -->
<g id="edge1" class="edge">
<title>AppComponent&#45;&gt;AppModule</title>
<path fill="none" stroke="black" d="M1127,-122.3C1127,-140.27 1127,-165 1127,-165 1127,-165 661.87,-165 661.87,-165"/>
<polygon fill="black" stroke="black" points="661.87,-161.5 651.87,-165 661.87,-168.5 661.87,-161.5"/>
</g>
<!-- EventDetailsComponent -->
<g id="node2" class="node">
<title>EventDetailsComponent</title>
<polygon fill="#ffffb3" stroke="black" points="1055.64,-122 902.36,-122 902.36,-86 1055.64,-86 1055.64,-122"/>
<text text-anchor="middle" x="979" y="-99.8" font-family="Times,serif" font-size="14.00">EventDetailsComponent</text>
</g>
<!-- EventDetailsComponent&#45;&gt;AppModule -->
<g id="edge2" class="edge">
<title>EventDetailsComponent&#45;&gt;AppModule</title>
<path fill="none" stroke="black" d="M979,-122.03C979,-138.4 979,-160 979,-160 979,-160 661.97,-160 661.97,-160"/>
<polygon fill="black" stroke="black" points="661.97,-156.5 651.97,-160 661.97,-163.5 661.97,-156.5"/>
</g>
<!-- FooterComponent -->
<g id="node3" class="node">
<title>FooterComponent</title>
<polygon fill="#ffffb3" stroke="black" points="883.88,-122 766.12,-122 766.12,-86 883.88,-86 883.88,-122"/>
<text text-anchor="middle" x="825" y="-99.8" font-family="Times,serif" font-size="14.00">FooterComponent</text>
</g>
<!-- FooterComponent&#45;&gt;AppModule -->
<g id="edge3" class="edge">
<title>FooterComponent&#45;&gt;AppModule</title>
<path fill="none" stroke="black" d="M825,-122.19C825,-137.18 825,-156 825,-156 825,-156 661.71,-156 661.71,-156"/>
<polygon fill="black" stroke="black" points="661.71,-152.5 651.71,-156 661.71,-159.5 661.71,-152.5"/>
</g>
<!-- NavbarComponent -->
<g id="node4" class="node">
<title>NavbarComponent</title>
<polygon fill="#ffffb3" stroke="black" points="748.03,-122 625.97,-122 625.97,-86 748.03,-86 748.03,-122"/>
<text text-anchor="middle" x="687" y="-99.8" font-family="Times,serif" font-size="14.00">NavbarComponent</text>
</g>
<!-- NavbarComponent&#45;&gt;AppModule -->
<g id="edge4" class="edge">
<title>NavbarComponent&#45;&gt;AppModule</title>
<path fill="none" stroke="black" d="M638.78,-122.11C638.78,-122.11 638.78,-140.99 638.78,-140.99"/>
<polygon fill="black" stroke="black" points="635.28,-140.99 638.78,-150.99 642.28,-140.99 635.28,-140.99"/>
</g>
<!-- RegistrationComponent -->
<g id="node5" class="node">
<title>RegistrationComponent</title>
<polygon fill="#ffffb3" stroke="black" points="607.77,-122 458.23,-122 458.23,-86 607.77,-86 607.77,-122"/>
<text text-anchor="middle" x="533" y="-99.8" font-family="Times,serif" font-size="14.00">RegistrationComponent</text>
</g>
<!-- RegistrationComponent&#45;&gt;AppModule -->
<g id="edge5" class="edge">
<title>RegistrationComponent&#45;&gt;AppModule</title>
<path fill="none" stroke="black" d="M588.03,-122.11C588.03,-122.11 588.03,-140.99 588.03,-140.99"/>
<polygon fill="black" stroke="black" points="584.53,-140.99 588.03,-150.99 591.53,-140.99 584.53,-140.99"/>
</g>
<!-- SettingsComponent -->
<g id="node6" class="node">
<title>SettingsComponent</title>
<polygon fill="#ffffb3" stroke="black" points="440.45,-122 313.55,-122 313.55,-86 440.45,-86 440.45,-122"/>
<text text-anchor="middle" x="377" y="-99.8" font-family="Times,serif" font-size="14.00">SettingsComponent</text>
</g>
<!-- SettingsComponent&#45;&gt;AppModule -->
<g id="edge6" class="edge">
<title>SettingsComponent&#45;&gt;AppModule</title>
<path fill="none" stroke="black" d="M377,-122.03C377,-138.4 377,-160 377,-160 377,-160 558.08,-160 558.08,-160"/>
<polygon fill="black" stroke="black" points="558.08,-163.5 568.08,-160 558.08,-156.5 558.08,-163.5"/>
</g>
<!-- AppComponent  -->
<g id="node10" class="node">
<title>AppComponent </title>
<polygon fill="#80b1d3" stroke="black" points="664.44,-252 555.56,-252 555.56,-216 664.44,-216 664.44,-252"/>
<text text-anchor="middle" x="610" y="-229.8" font-family="Times,serif" font-size="14.00">AppComponent </text>
</g>
<!-- AppModule&#45;&gt;AppComponent  -->
<g id="edge9" class="edge">
<title>AppModule&#45;&gt;AppComponent </title>
<path fill="none" stroke="black" stroke-dasharray="1,5" d="M610,-187.11C610,-187.11 610,-205.99 610,-205.99"/>
<polygon fill="black" stroke="black" points="606.5,-205.99 610,-215.99 613.5,-205.99 606.5,-205.99"/>
</g>
<!-- AppRoutingModule -->
<g id="node8" class="node">
<title>AppRoutingModule</title>
<polygon fill="#8dd3c7" stroke="black" points="290.27,-122 287.27,-126 266.27,-126 263.27,-122 161.73,-122 161.73,-86 290.27,-86 290.27,-122"/>
<text text-anchor="middle" x="226" y="-99.8" font-family="Times,serif" font-size="14.00">AppRoutingModule</text>
</g>
<!-- AppRoutingModule&#45;&gt;AppModule -->
<g id="edge7" class="edge">
<title>AppRoutingModule&#45;&gt;AppModule</title>
<path fill="none" stroke="black" d="M226,-122.11C226,-141.34 226,-169 226,-169 226,-169 558.17,-169 558.17,-169"/>
<polygon fill="black" stroke="black" points="558.17,-172.5 568.17,-169 558.17,-165.5 558.17,-172.5"/>
</g>
<!-- EventsComponent -->
<g id="node9" class="node">
<title>EventsComponent</title>
<polygon fill="#8dd3c7" stroke="black" points="143.94,-122 140.94,-126 119.94,-126 116.94,-122 24.06,-122 24.06,-86 143.94,-86 143.94,-122"/>
<text text-anchor="middle" x="84" y="-99.8" font-family="Times,serif" font-size="14.00">EventsComponent</text>
</g>
<!-- EventsComponent&#45;&gt;AppModule -->
<g id="edge8" class="edge">
<title>EventsComponent&#45;&gt;AppModule</title>
<path fill="none" stroke="black" d="M84,-122.29C84,-144.21 84,-178 84,-178 84,-178 558.29,-178 558.29,-178"/>
<polygon fill="black" stroke="black" points="558.29,-181.5 568.29,-178 558.29,-174.5 558.29,-181.5"/>
</g>
<!-- BasicelementsComponent -->
<g id="node11" class="node">
<title>BasicelementsComponent</title>
<polygon fill="#ffffb3" stroke="black" points="2668.19,-122 2505.81,-122 2505.81,-86 2668.19,-86 2668.19,-122"/>
<text text-anchor="middle" x="2587" y="-99.8" font-family="Times,serif" font-size="14.00">BasicelementsComponent</text>
</g>
<!-- ComponentsModule -->
<g id="node19" class="node">
<title>ComponentsModule</title>
<polygon fill="#8dd3c7" stroke="black" points="1991.33,-187 1988.33,-191 1967.33,-191 1964.33,-187 1860.67,-187 1860.67,-151 1991.33,-151 1991.33,-187"/>
<text text-anchor="middle" x="1926" y="-164.8" font-family="Times,serif" font-size="14.00">ComponentsModule</text>
</g>
<!-- BasicelementsComponent&#45;&gt;ComponentsModule -->
<g id="edge10" class="edge">
<title>BasicelementsComponent&#45;&gt;ComponentsModule</title>
<path fill="none" stroke="black" d="M2587,-122.01C2587,-144.49 2587,-180 2587,-180 2587,-180 2001.19,-180 2001.19,-180"/>
<polygon fill="black" stroke="black" points="2001.19,-176.5 1991.19,-180 2001.19,-183.5 2001.19,-176.5"/>
</g>
<!-- ComponentsComponent -->
<g id="node12" class="node">
<title>ComponentsComponent</title>
<polygon fill="#ffffb3" stroke="black" points="2488.11,-122 2335.89,-122 2335.89,-86 2488.11,-86 2488.11,-122"/>
<text text-anchor="middle" x="2412" y="-99.8" font-family="Times,serif" font-size="14.00">ComponentsComponent</text>
</g>
<!-- ComponentsComponent&#45;&gt;ComponentsModule -->
<g id="edge11" class="edge">
<title>ComponentsComponent&#45;&gt;ComponentsModule</title>
<path fill="none" stroke="black" d="M2412,-122.13C2412,-142.57 2412,-173 2412,-173 2412,-173 2001.29,-173 2001.29,-173"/>
<polygon fill="black" stroke="black" points="2001.29,-169.5 1991.29,-173 2001.29,-176.5 2001.29,-169.5"/>
</g>
<!-- NavigationComponent -->
<g id="node13" class="node">
<title>NavigationComponent</title>
<polygon fill="#ffffb3" stroke="black" points="2317.54,-122 2174.46,-122 2174.46,-86 2317.54,-86 2317.54,-122"/>
<text text-anchor="middle" x="2246" y="-99.8" font-family="Times,serif" font-size="14.00">NavigationComponent</text>
</g>
<!-- NavigationComponent&#45;&gt;ComponentsModule -->
<g id="edge12" class="edge">
<title>NavigationComponent&#45;&gt;ComponentsModule</title>
<path fill="none" stroke="black" d="M2246,-122.27C2246,-140.56 2246,-166 2246,-166 2246,-166 2001.53,-166 2001.53,-166"/>
<polygon fill="black" stroke="black" points="2001.53,-162.5 1991.53,-166 2001.53,-169.5 2001.53,-162.5"/>
</g>
<!-- NgbdModalComponent -->
<g id="node14" class="node">
<title>NgbdModalComponent</title>
<polygon fill="#ffffb3" stroke="black" points="2156.49,-122 2007.51,-122 2007.51,-86 2156.49,-86 2156.49,-122"/>
<text text-anchor="middle" x="2082" y="-99.8" font-family="Times,serif" font-size="14.00">NgbdModalComponent</text>
</g>
<!-- NgbdModalComponent&#45;&gt;ComponentsModule -->
<g id="edge13" class="edge">
<title>NgbdModalComponent&#45;&gt;ComponentsModule</title>
<path fill="none" stroke="black" d="M2082,-122.01C2082,-138.05 2082,-159 2082,-159 2082,-159 2001.25,-159 2001.25,-159"/>
<polygon fill="black" stroke="black" points="2001.25,-155.5 1991.25,-159 2001.25,-162.5 2001.25,-155.5"/>
</g>
<!-- NgbdModalContent -->
<g id="node15" class="node">
<title>NgbdModalContent</title>
<polygon fill="#ffffb3" stroke="black" points="1989.99,-122 1862.01,-122 1862.01,-86 1989.99,-86 1989.99,-122"/>
<text text-anchor="middle" x="1926" y="-99.8" font-family="Times,serif" font-size="14.00">NgbdModalContent</text>
</g>
<!-- NgbdModalContent&#45;&gt;ComponentsModule -->
<g id="edge14" class="edge">
<title>NgbdModalContent&#45;&gt;ComponentsModule</title>
<path fill="none" stroke="black" d="M1926,-122.11C1926,-122.11 1926,-140.99 1926,-140.99"/>
<polygon fill="black" stroke="black" points="1922.5,-140.99 1926,-150.99 1929.5,-140.99 1922.5,-140.99"/>
</g>
<!-- NotificationComponent -->
<g id="node16" class="node">
<title>NotificationComponent</title>
<polygon fill="#ffffb3" stroke="black" points="1844.48,-122 1695.52,-122 1695.52,-86 1844.48,-86 1844.48,-122"/>
<text text-anchor="middle" x="1770" y="-99.8" font-family="Times,serif" font-size="14.00">NotificationComponent</text>
</g>
<!-- NotificationComponent&#45;&gt;ComponentsModule -->
<g id="edge15" class="edge">
<title>NotificationComponent&#45;&gt;ComponentsModule</title>
<path fill="none" stroke="black" d="M1770,-122.11C1770,-141.34 1770,-169 1770,-169 1770,-169 1850.75,-169 1850.75,-169"/>
<polygon fill="black" stroke="black" points="1850.75,-172.5 1860.75,-169 1850.75,-165.5 1850.75,-172.5"/>
</g>
<!-- NucleoiconsComponent -->
<g id="node17" class="node">
<title>NucleoiconsComponent</title>
<polygon fill="#ffffb3" stroke="black" points="1677.81,-122 1526.19,-122 1526.19,-86 1677.81,-86 1677.81,-122"/>
<text text-anchor="middle" x="1602" y="-99.8" font-family="Times,serif" font-size="14.00">NucleoiconsComponent</text>
</g>
<!-- NucleoiconsComponent&#45;&gt;ComponentsModule -->
<g id="edge16" class="edge">
<title>NucleoiconsComponent&#45;&gt;ComponentsModule</title>
<path fill="none" stroke="black" d="M1602,-122.03C1602,-142.77 1602,-174 1602,-174 1602,-174 1850.82,-174 1850.82,-174"/>
<polygon fill="black" stroke="black" points="1850.82,-177.5 1860.82,-174 1850.82,-170.5 1850.82,-177.5"/>
</g>
<!-- TypographyComponent -->
<g id="node18" class="node">
<title>TypographyComponent</title>
<polygon fill="#ffffb3" stroke="black" points="1507.76,-122 1358.24,-122 1358.24,-86 1507.76,-86 1507.76,-122"/>
<text text-anchor="middle" x="1433" y="-99.8" font-family="Times,serif" font-size="14.00">TypographyComponent</text>
</g>
<!-- TypographyComponent&#45;&gt;ComponentsModule -->
<g id="edge17" class="edge">
<title>TypographyComponent&#45;&gt;ComponentsModule</title>
<path fill="none" stroke="black" d="M1433,-122.29C1433,-144.21 1433,-178 1433,-178 1433,-178 1850.79,-178 1850.79,-178"/>
<polygon fill="black" stroke="black" points="1850.79,-181.5 1860.79,-178 1850.79,-174.5 1850.79,-181.5"/>
</g>
<!-- ComponentsComponent  -->
<g id="node21" class="node">
<title>ComponentsComponent </title>
<polygon fill="#fb8072" stroke="black" points="2003.61,-252 1848.39,-252 1848.39,-216 2003.61,-216 2003.61,-252"/>
<text text-anchor="middle" x="1926" y="-229.8" font-family="Times,serif" font-size="14.00">ComponentsComponent </text>
</g>
<!-- ComponentsModule&#45;&gt;ComponentsComponent  -->
<g id="edge19" class="edge">
<title>ComponentsModule&#45;&gt;ComponentsComponent </title>
<path fill="none" stroke="black" stroke-dasharray="5,2" d="M1926,-187.11C1926,-187.11 1926,-205.99 1926,-205.99"/>
<polygon fill="black" stroke="black" points="1922.5,-205.99 1926,-215.99 1929.5,-205.99 1922.5,-205.99"/>
</g>
<!-- CardsComponent -->
<g id="node20" class="node">
<title>CardsComponent</title>
<polygon fill="#8dd3c7" stroke="black" points="1333.99,-122 1330.99,-126 1309.99,-126 1306.99,-122 1220.01,-122 1220.01,-86 1333.99,-86 1333.99,-122"/>
<text text-anchor="middle" x="1277" y="-99.8" font-family="Times,serif" font-size="14.00">CardsComponent</text>
</g>
<!-- CardsComponent&#45;&gt;ComponentsModule -->
<g id="edge18" class="edge">
<title>CardsComponent&#45;&gt;ComponentsModule</title>
<path fill="none" stroke="black" d="M1277,-122.32C1277,-145.66 1277,-183 1277,-183 1277,-183 1850.8,-183 1850.8,-183"/>
<polygon fill="black" stroke="black" points="1850.8,-186.5 1860.8,-183 1850.8,-179.5 1850.8,-186.5"/>
</g>
<!-- LandingComponent -->
<g id="node22" class="node">
<title>LandingComponent</title>
<polygon fill="#ffffb3" stroke="black" points="2973.99,-122 2846.01,-122 2846.01,-86 2973.99,-86 2973.99,-122"/>
<text text-anchor="middle" x="2910" y="-99.8" font-family="Times,serif" font-size="14.00">LandingComponent</text>
</g>
<!-- ExamplesModule -->
<g id="node24" class="node">
<title>ExamplesModule</title>
<polygon fill="#8dd3c7" stroke="black" points="2896.26,-187 2893.26,-191 2872.26,-191 2869.26,-187 2781.74,-187 2781.74,-151 2896.26,-151 2896.26,-187"/>
<text text-anchor="middle" x="2839" y="-164.8" font-family="Times,serif" font-size="14.00">ExamplesModule</text>
</g>
<!-- LandingComponent&#45;&gt;ExamplesModule -->
<g id="edge20" class="edge">
<title>LandingComponent&#45;&gt;ExamplesModule</title>
<path fill="none" stroke="black" d="M2871.19,-122.11C2871.19,-122.11 2871.19,-140.99 2871.19,-140.99"/>
<polygon fill="black" stroke="black" points="2867.69,-140.99 2871.19,-150.99 2874.69,-140.99 2867.69,-140.99"/>
</g>
<!-- ProfileComponent -->
<g id="node23" class="node">
<title>ProfileComponent</title>
<polygon fill="#ffffb3" stroke="black" points="2827.93,-122 2708.07,-122 2708.07,-86 2827.93,-86 2827.93,-122"/>
<text text-anchor="middle" x="2768" y="-99.8" font-family="Times,serif" font-size="14.00">ProfileComponent</text>
</g>
<!-- ProfileComponent&#45;&gt;ExamplesModule -->
<g id="edge21" class="edge">
<title>ProfileComponent&#45;&gt;ExamplesModule</title>
<path fill="none" stroke="black" d="M2804.67,-122.11C2804.67,-122.11 2804.67,-140.99 2804.67,-140.99"/>
<polygon fill="black" stroke="black" points="2801.17,-140.99 2804.67,-150.99 2808.17,-140.99 2801.17,-140.99"/>
</g>
</g>
</svg>
